<?xml version="1.0" encoding="UTF-8" standalone="no"?>
<!-- Created with Inkscape (http://www.inkscape.org/) -->

<svg
   width="250mm"
   height="150mm"
   viewBox="0 0 250 150"
   version="1.1"
   id="svg5"
   inkscape:version="1.1.2 (b8e25be833, 2022-02-05)"
   sodipodi:docname="黃色狗狗.svg"
   xmlns:inkscape="http://www.inkscape.org/namespaces/inkscape"
   xmlns:sodipodi="http://sodipodi.sourceforge.net/DTD/sodipodi-0.dtd"
   xmlns="http://www.w3.org/2000/svg"
   xmlns:svg="http://www.w3.org/2000/svg">
  <sodipodi:namedview
     id="namedview7"
     pagecolor="#ffffff"
     bordercolor="#111111"
     borderopacity="1"
     inkscape:pageshadow="0"
     inkscape:pageopacity="0"
     inkscape:pagecheckerboard="1"
     inkscape:document-units="mm"
     showgrid="false"
     inkscape:zoom="0.64052329"
     inkscape:cx="355.95895"
     inkscape:cy="422.31095"
     inkscape:window-width="1920"
     inkscape:window-height="1001"
     inkscape:window-x="-9"
     inkscape:window-y="-9"
     inkscape:window-maximized="1"
     inkscape:current-layer="layer1"
     units="mm" />
  <defs
     id="defs2" />
  <g
     inkscape:label="Layer 1"
     inkscape:groupmode="layer"
     id="layer1">
    <g
       id="g75051"
       transform="translate(-15.188536,-14.020187)">
      <path
         style="fill:#000000;fill-opacity:1;stroke:none;stroke-width:0.264583px;stroke-linecap:butt;stroke-linejoin:miter;stroke-opacity:1"
         d="m 200.49564,26.746517 2.99479,-0.82614 3.66603,-1.08432 2.89151,-0.77452 c 0,0 3.40786,0.0516 3.66604,0.0516 0.25818,0 1.96209,1.03268 2.16863,1.03268 0.20653,0 3.09806,0.92942 3.87257,1.39413 0.77452,0.46471 4.18238,2.117 5.47322,3.40785 1.29085,1.29086 2.685,1.91047 4.02747,4.02747 1.34249,2.117 3.04643,5.62813 3.1497,7.07389 0.10327,1.44576 -0.30983,2.06537 -0.25818,2.53008 0.0516,0.46471 0.72287,1.23922 1.39412,2.117 0.67124,0.87778 4.59544,4.69871 4.59544,4.69871 l 4.18237,5.47322 c 0,0 1.08432,1.60068 0.77452,2.22028 -0.3098,0.6196 -1.54903,2.68497 -2.47843,3.20133 -0.92943,0.51633 -5.06016,3.56275 -8.10657,3.71766 -3.04644,0.15489 -8.51966,-3.04641 -9.08765,-3.30459 -0.56795,-0.25818 -4.49217,-1.75557 -5.83464,-2.22028 -1.3425,-0.46472 -3.76931,-0.46472 -4.59544,-0.41307 -0.82616,0.0516 -3.04644,1.08432 -3.66604,1.70392 -0.6196,0.61963 -1.13596,2.58172 -2.27191,3.51112 -1.13595,0.92943 -3.82093,3.35624 -5.67976,3.76931 -1.85883,0.41307 -4.02747,4.13073 -8.98436,4.90524 -4.95688,0.77452 -4.80198,0.87779 -4.80198,0.87779 0,0 -0.3098,3.51112 -1.23922,5.47325 -0.92941,1.96209 -1.70393,4.54379 -1.75556,5.06013 -0.0516,0.51636 -0.36144,16.832763 -0.36144,16.832763 l 0.0516,5.57649 5.62813,14.35431 0.82615,2.11701 2.47844,2.94314 c 0,0 1.13595,2.06537 2.117,2.78826 0.98106,0.72287 5.62813,1.60065 7.02226,2.37517 1.39412,0.77451 2.63334,1.54903 3.40785,2.47846 0.77452,0.9294 0.51635,2.27189 0.51635,2.27189 l -0.92942,0.51634 c 0,0 -0.25817,0.67125 -1.18759,1.34249 -0.92941,0.67125 -0.67124,1.39412 -1.70392,1.39412 -1.03269,0 -2.68498,-0.36145 -2.68498,-0.36145 0,0 -1.23922,0.67125 -2.58171,0.30983 -1.34249,-0.36145 -3.09806,-1.08432 -3.51113,-1.49741 -0.41307,-0.41307 -1.60066,-0.41307 -2.117,-0.6196 -0.51634,-0.20654 -1.85883,-1.23923 -2.117,-1.54903 -0.25818,-0.3098 -6.04121,-7.53859 -6.04121,-7.53859 0,0 -2.63334,-3.20132 -3.04642,-4.75035 -0.41307,-1.54903 -5.67976,-9.60396 -5.67976,-9.60396 l -8.57128,-16.058253 c 0,0 -4.23401,-5.78302 -4.23401,-6.50592 0,-0.72286 1.6523,-3.45948 1.6523,-4.54379 0,-1.08432 -0.41307,-4.54382 -1.85883,-4.69871 -1.44576,-0.15491 -3.56276,1.34247 -3.56276,1.34247 l -8.05494,15.33536 c 0,0 -3.35623,9.190913 -3.82093,9.913773 -0.46471,0.7229 -0.56798,4.23403 -0.56798,4.23403 l 0.72288,2.94314 c 0,0 1.9621,-0.3098 3.04642,0.25815 1.08432,0.56799 2.73661,1.9621 2.73661,1.9621 0,0 1.6523,0.77452 1.8072,1.49741 0.1549,0.72287 0.56798,1.3425 0.30981,1.6523 -0.25818,0.3098 -1.13596,0.6196 -1.13596,0.6196 0,0 0,0.87778 -0.92941,1.29085 -0.92942,0.41309 -1.8072,0.46471 -1.8072,0.46471 0,0 -0.36144,0.77452 -1.08432,0.87778 -0.72288,0.10327 -4.02747,0.3098 -4.02747,0.3098 l -1.34249,-0.9294 -2.32354,-0.41306 c 0,0 -0.82615,-0.87779 -0.92941,-1.39415 -0.10327,-0.51633 -0.36144,-1.49738 -0.36144,-1.49738 0,0 -2.47845,-5.47322 -2.37518,-5.93794 0.10327,-0.46471 0.92942,-5.31833 0.92942,-5.31833 0,0 -0.56798,-0.98105 -0.67125,-1.34247 -0.10326,-0.36145 -0.72288,-0.3098 -0.0516,-2.63335 0.67125,-2.32354 1.75556,-3.45951 1.75556,-3.45951 l 1.70393,-9.810483 1.6523,-10.01705 c 0,0 -12.90856,-4.69871 -14.19941,-5.7314 -1.29086,-1.03267 -9.9654,-9.08762 -10.32684,-9.44906 -0.36144,-0.36143 -4.90525,-2.53008 -4.90525,-2.53008 0,0 0.98104,3.97584 -0.98106,4.49217 -1.96209,0.51636 -5.47322,1.91048 -5.47322,1.91048 0,0 -5.47323,6.66081 -7.796765,7.90003 -2.32354,1.23923 -4.18237,1.85883 -4.18237,1.85883 0,0 -1.70393,5.47323 -2.83988,6.45428 -1.13595,0.98105 -4.64708,7.0739 -5.98957,8.10657 -1.34249,1.03269 -4.64708,5.369953 -5.42159,9.190913 -0.77451,3.82092 -0.61961,6.19609 -0.61961,6.19609 l 3.20132,7.90003 3.30459,2.2719 c 0,0 0.82615,-0.0516 1.54902,0 0.72288,0.0516 3.20133,1.23923 3.7693,1.96212 0.56798,0.72287 0.72288,1.9621 0.72288,1.9621 l -0.87778,0.67125 c 0,0 -0.72288,1.2392 -1.34249,1.60065 -0.61961,0.36145 -3.35622,1.08431 -3.35622,1.08431 0,0 -2.11701,0.6196 -2.94315,0.51634 -0.82615,-0.10327 -3.14969,-1.03267 -3.14969,-1.03267 l -1.9621,-0.61963 -2.53008,-3.45948 -2.63334,-7.90003 -2.27191,-8.26149 -1.60066,-5.42157 c 0,0 0.67125,-1.755573 1.13595,-2.168663 0.46471,-0.41307 3.4595,-5.21504 3.4595,-5.21504 0,0 1.65229,-8.0033 1.60066,-8.77782 -0.0516,-0.77451 -2.78825,-5.78302 -2.89152,-6.55754 -0.10327,-0.77451 -6.09284,-15.80007 -5.98957,-16.31643 0.10327,-0.51633 -1.60066,-5.62811 0.51635,-11.2046 2.117,-5.57652 2.117,-6.60919 2.117,-6.60919 l -3.51113,7.17714 0.20654,5.36996 0.56797,5.62814 c 0,0 0.36144,6.19612 0.30981,6.45427 -0.0516,0.25818 0.30981,5.7314 -0.77451,6.4543 -1.08432,0.72287 -5.62813,2.68496 -7.5386,3.45948 -1.91046,0.77451 -5.00852,4.28564 -6.60918,4.75035 -1.60066,0.46469 -7.59023,0.51634 -9.19089,0.20654 -1.600658,-0.3098 -11.256256,2.11701 -14.819019,-4.28564 -3.56276,-6.40266 -3.304587,-7.84842 -3.304587,-7.84842 0,0 -0.516343,-3.87255 -0.258173,-4.44053 0.258173,-0.56798 4.079103,-3.30459 4.079103,-3.30459 0,0 2.581711,-1.49738 4.130738,-1.54903 1.549027,-0.0516 11.049718,-0.87778 11.359528,-0.87778 0.3098,0 5.31832,-1.6523 6.76408,-3.25295 1.44576,-1.60067 8.10657,-10.79156 8.10657,-10.79156 0,0 -0.25817,-4.28563 2.94315,-7.33205 3.20132,-3.04642 6.81572,-6.91899 11.7726,-8.46801 4.95689,-1.54903 17.14256,-5.62813 17.14256,-5.62813 0,0 4.49218,-0.92942 5.93794,-0.98105 1.44575,-0.0516 30.515815,2.68498 30.515815,2.68498 l 14.40594,2.2719 c 0,0 1.60066,-0.3098 6.14447,-0.25817 4.54381,0.0516 8.77782,0.67124 9.08763,0.67124 0.3098,0 2.58171,0.98106 2.58171,0.98106 l 13.94123,-0.0516 c 0,0 8.00331,-1.75556 9.03599,-1.91046 1.03269,-0.15491 2.58171,-0.51635 4.18237,-0.46471 1.60066,0.0516 9.60397,-2.89152 10.17194,-3.04642 0.56798,-0.1549 2.73661,0.41307 2.73661,0.41307 z"
         id="path1044" />
      <path
         style="fill:#ffb6c1;fill-opacity:1;stroke:none;stroke-width:0.264583px;stroke-linecap:butt;stroke-linejoin:miter;stroke-opacity:1"
         d="m 242.03538,55.687497 c 0,0 -1.11014,0.36145 -1.52321,0.61961 -0.41309,0.25818 0.12909,1.16178 0.15489,1.67812 0.0259,0.51633 -0.28398,0.95522 0.0775,1.11013 0.36142,0.15489 1.49738,0.20654 1.62647,-0.0516 0.12909,-0.25816 0.80031,-1.16176 0.80031,-1.16176 0,0 -0.3098,-1.3425 -0.43889,-1.49741 -0.12906,-0.15489 -0.69704,-0.69705 -0.69704,-0.69705 z"
         id="path1046" />
      <path
         style="fill:#f0fff0;fill-opacity:1;stroke:#000000;stroke-width:0.264583px;stroke-linecap:butt;stroke-linejoin:miter;stroke-opacity:1"
         d="m 229.52892,44.515177 c 0,0 -0.009,0.77584 -0.0639,0.92189 -0.0548,0.14605 -0.6572,0.40164 -0.94017,0.43815 -0.28294,0.0365 -0.82148,0.31946 -1.06794,0.3012 -0.24643,-0.0183 -0.8945,-0.31946 -1.02229,-0.31946 -0.1278,0 0.5294,-0.55681 0.69371,-0.70284 0.16428,-0.14605 0.3012,-0.5294 0.58417,-0.60243 0.28295,-0.073 0.67546,-0.14605 0.93102,-0.13692 0.25558,0.009 0.8854,0.10041 0.8854,0.10041 z"
         id="path1048" />
      <path
         style="fill:#525252;fill-opacity:1;stroke:none;stroke-width:0.264583px;stroke-linecap:butt;stroke-linejoin:miter;stroke-opacity:1"
         d="m 214.59179,38.674027 c 0,0 0.6196,2.01373 -0.10327,2.4268 -0.72289,0.41308 -1.6523,1.54903 -2.42681,2.37518 -0.77452,0.82616 -2.2719,2.37516 -2.5817,3.09805 -0.30983,0.72287 -1.13596,3.6144 -1.13596,3.6144 0,0 -0.36144,2.11701 -0.87779,3.35621 -0.51634,1.23923 -0.77451,3.25297 -1.9621,3.56277 -1.18758,0.3098 -2.4268,0.82614 -3.40785,-0.3098 -0.98105,-1.13596 -2.47845,-2.47845 -2.53008,-4.44055 -0.0516,-1.9621 -1.03268,-5.42158 -1.34249,-6.76407 -0.3098,-1.3425 -1.39412,-4.69872 -1.03268,-6.04121 0.36144,-1.34249 0.36144,-2.27191 1.65229,-2.68498 1.29086,-0.41308 3.6144,-1.75556 4.85362,-1.85883 1.23922,-0.10327 4.234,-0.15491 5.00853,0 0.77451,0.1549 2.58169,0.0516 3.71766,0.92941 1.13593,0.87779 2.16863,2.73662 2.16863,2.73662 z"
         id="path1050" />
      <path
         style="fill:#000000;fill-opacity:1;stroke:#000000;stroke-width:0.264583px;stroke-linecap:butt;stroke-linejoin:miter;stroke-opacity:1"
         d="m 81.979235,101.29876 c 0,0 0.43813,3.06692 1.16834,4.23526 0.73022,1.16835 2.77483,5.11152 3.94318,6.35289 1.16835,1.24137 2.62879,3.06692 2.3367,3.87016 -0.29209,0.80325 -2.70181,1.09533 -3.43202,1.09533 -0.73022,0 -3.13994,-1.53345 -3.13994,-1.53345 l -2.30612,-5.02833 0.48057,-6.21704 z"
         id="path49650" />
      <path
         style="fill:#000000;stroke:#000000;stroke-width:0.264583px;stroke-linecap:butt;stroke-linejoin:miter;stroke-opacity:1"
         d="m 73.423855,96.969067 -2.16864,-7.43535 1.03268,-14.66411 4.54381,10.53338 -1.80719,8.77776 z"
         id="path53117" />
    </g>
  </g>
</svg>
