<?xml version="1.0" encoding="UTF-8"?>
<svg width="250mm" height="150mm" version="1.1" viewBox="0 0 250 150" xmlns="http://www.w3.org/2000/svg">
<g transform="translate(-15.189 -14.02)">
<path d="m200.5 26.747 2.9948-0.82614 3.666-1.0843 2.8915-0.77452s3.4079 0.0516 3.666 0.0516 1.9621 1.0327 2.1686 1.0327c0.20653 0 3.0981 0.92942 3.8726 1.3941 0.77452 0.46471 4.1824 2.117 5.4732 3.4078 1.2908 1.2909 2.685 1.9105 4.0275 4.0275 1.3425 2.117 3.0464 5.6281 3.1497 7.0739s-0.30983 2.0654-0.25818 2.5301c0.0516 0.46471 0.72287 1.2392 1.3941 2.117 0.67124 0.87778 4.5954 4.6987 4.5954 4.6987l4.1824 5.4732s1.0843 1.6007 0.77452 2.2203-1.549 2.685-2.4784 3.2013c-0.92943 0.51633-5.0602 3.5628-8.1066 3.7177-3.0464 0.15489-8.5197-3.0464-9.0876-3.3046-0.56795-0.25818-4.4922-1.7556-5.8346-2.2203-1.3425-0.46472-3.7693-0.46472-4.5954-0.41307-0.82616 0.0516-3.0464 1.0843-3.666 1.7039-0.6196 0.61963-1.136 2.5817-2.2719 3.5111-1.136 0.92943-3.8209 3.3562-5.6798 3.7693s-4.0275 4.1307-8.9844 4.9052c-4.9569 0.77452-4.802 0.87779-4.802 0.87779s-0.3098 3.5111-1.2392 5.4732c-0.92941 1.9621-1.7039 4.5438-1.7556 5.0601-0.0516 0.51636-0.36144 16.833-0.36144 16.833l0.0516 5.5765 5.6281 14.354 0.82615 2.117 2.4784 2.9431s1.136 2.0654 2.117 2.7883c0.98106 0.72287 5.6281 1.6006 7.0223 2.3752 1.3941 0.77451 2.6333 1.549 3.4078 2.4785 0.77452 0.9294 0.51635 2.2719 0.51635 2.2719l-0.92942 0.51634s-0.25817 0.67125-1.1876 1.3425c-0.92941 0.67125-0.67124 1.3941-1.7039 1.3941-1.0327 0-2.685-0.36145-2.685-0.36145s-1.2392 0.67125-2.5817 0.30983c-1.3425-0.36145-3.0981-1.0843-3.5111-1.4974-0.41307-0.41307-1.6007-0.41307-2.117-0.6196-0.51634-0.20654-1.8588-1.2392-2.117-1.549-0.25818-0.3098-6.0412-7.5386-6.0412-7.5386s-2.6333-3.2013-3.0464-4.7504c-0.41307-1.549-5.6798-9.604-5.6798-9.604l-8.5713-16.058s-4.234-5.783-4.234-6.5059c0-0.72286 1.6523-3.4595 1.6523-4.5438 0-1.0843-0.41307-4.5438-1.8588-4.6987-1.4458-0.15491-3.5628 1.3425-3.5628 1.3425l-8.0549 15.335s-3.3562 9.1909-3.8209 9.9138c-0.46471 0.7229-0.56798 4.234-0.56798 4.234l0.72288 2.9431s1.9621-0.3098 3.0464 0.25815c1.0843 0.56799 2.7366 1.9621 2.7366 1.9621s1.6523 0.77452 1.8072 1.4974c0.1549 0.72287 0.56798 1.3425 0.30981 1.6523-0.25818 0.3098-1.136 0.6196-1.136 0.6196s0 0.87778-0.92941 1.2908c-0.92942 0.41309-1.8072 0.46471-1.8072 0.46471s-0.36144 0.77452-1.0843 0.87778c-0.72288 0.10327-4.0275 0.3098-4.0275 0.3098l-1.3425-0.9294-2.3235-0.41306s-0.82615-0.87779-0.92941-1.3942c-0.10327-0.51633-0.36144-1.4974-0.36144-1.4974s-2.4784-5.4732-2.3752-5.9379c0.10327-0.46471 0.92942-5.3183 0.92942-5.3183s-0.56798-0.98105-0.67125-1.3425c-0.10326-0.36145-0.72288-0.3098-0.0516-2.6334 0.67125-2.3235 1.7556-3.4595 1.7556-3.4595l1.7039-9.8105 1.6523-10.017s-12.909-4.6987-14.199-5.7314c-1.2909-1.0327-9.9654-9.0876-10.327-9.4491-0.36144-0.36143-4.9052-2.5301-4.9052-2.5301s0.98104 3.9758-0.98106 4.4922c-1.9621 0.51636-5.4732 1.9105-5.4732 1.9105s-5.4732 6.6608-7.7968 7.9c-2.3235 1.2392-4.1824 1.8588-4.1824 1.8588s-1.7039 5.4732-2.8399 6.4543-4.6471 7.0739-5.9896 8.1066c-1.3425 1.0327-4.6471 5.37-5.4216 9.1909-0.77451 3.8209-0.61961 6.1961-0.61961 6.1961l3.2013 7.9 3.3046 2.2719s0.82615-0.0516 1.549 0c0.72288 0.0516 3.2013 1.2392 3.7693 1.9621 0.56798 0.72287 0.72288 1.9621 0.72288 1.9621l-0.87778 0.67125s-0.72288 1.2392-1.3425 1.6006-3.3562 1.0843-3.3562 1.0843-2.117 0.6196-2.9432 0.51634c-0.82615-0.10327-3.1497-1.0327-3.1497-1.0327l-1.9621-0.61963-2.5301-3.4595-2.6333-7.9-2.2719-8.2615-1.6007-5.4216s0.67125-1.7556 1.136-2.1687c0.46471-0.41307 3.4595-5.215 3.4595-5.215s1.6523-8.0033 1.6007-8.7778c-0.0516-0.77451-2.7882-5.783-2.8915-6.5575-0.10327-0.77451-6.0928-15.8-5.9896-16.316 0.10327-0.51633-1.6007-5.6281 0.51635-11.205 2.117-5.5765 2.117-6.6092 2.117-6.6092l-3.5111 7.1771 0.20654 5.37 0.56797 5.6281s0.36144 6.1961 0.30981 6.4543c-0.0516 0.25818 0.30981 5.7314-0.77451 6.4543-1.0843 0.72287-5.6281 2.685-7.5386 3.4595-1.9105 0.77451-5.0085 4.2856-6.6092 4.7504-1.6007 0.46469-7.5902 0.51634-9.1909 0.20654-1.6007-0.3098-11.256 2.117-14.819-4.2856-3.5628-6.4027-3.3046-7.8484-3.3046-7.8484s-0.51634-3.8726-0.25817-4.4405c0.25817-0.56798 4.0791-3.3046 4.0791-3.3046s2.5817-1.4974 4.1307-1.549c1.549-0.0516 11.05-0.87778 11.36-0.87778 0.3098 0 5.3183-1.6523 6.7641-3.253 1.4458-1.6007 8.1066-10.792 8.1066-10.792s-0.25817-4.2856 2.9432-7.332 6.8157-6.919 11.773-8.468c4.9569-1.549 17.143-5.6281 17.143-5.6281s4.4922-0.92942 5.9379-0.98105c1.4458-0.0516 30.516 2.685 30.516 2.685l14.406 2.2719s1.6007-0.3098 6.1445-0.25817c4.5438 0.0516 8.7778 0.67124 9.0876 0.67124 0.3098 0 2.5817 0.98106 2.5817 0.98106l13.941-0.0516s8.0033-1.7556 9.036-1.9105c1.0327-0.15491 2.5817-0.51635 4.1824-0.46471 1.6007 0.0516 9.604-2.8915 10.172-3.0464 0.56798-0.1549 2.7366 0.41307 2.7366 0.41307z"/>
<path d="m242.04 55.687s-1.1101 0.36145-1.5232 0.61961c-0.41309 0.25818 0.12909 1.1618 0.15489 1.6781 0.0259 0.51633-0.28398 0.95522 0.0775 1.1101 0.36142 0.15489 1.4974 0.20654 1.6265-0.0516 0.12909-0.25816 0.80031-1.1618 0.80031-1.1618s-0.3098-1.3425-0.43889-1.4974c-0.12906-0.15489-0.69704-0.69705-0.69704-0.69705z" fill="#ffb6c1"/>
<path d="m229.53 44.515s-9e-3 0.77584-0.0639 0.92189c-0.0548 0.14605-0.6572 0.40164-0.94017 0.43815-0.28294 0.0365-0.82148 0.31946-1.0679 0.3012-0.24643-0.0183-0.8945-0.31946-1.0223-0.31946-0.1278 0 0.5294-0.55681 0.69371-0.70284 0.16428-0.14605 0.3012-0.5294 0.58417-0.60243 0.28295-0.073 0.67546-0.14605 0.93102-0.13692 0.25558 9e-3 0.8854 0.10041 0.8854 0.10041z" fill="#f0fff0" stroke="#000" stroke-width=".26458px"/>
<path d="m214.59 38.674s0.6196 2.0137-0.10327 2.4268c-0.72289 0.41308-1.6523 1.549-2.4268 2.3752-0.77452 0.82616-2.2719 2.3752-2.5817 3.098-0.30983 0.72287-1.136 3.6144-1.136 3.6144s-0.36144 2.117-0.87779 3.3562c-0.51634 1.2392-0.77451 3.253-1.9621 3.5628-1.1876 0.3098-2.4268 0.82614-3.4078-0.3098-0.98105-1.136-2.4784-2.4784-2.5301-4.4406-0.0516-1.9621-1.0327-5.4216-1.3425-6.7641-0.3098-1.3425-1.3941-4.6987-1.0327-6.0412s0.36144-2.2719 1.6523-2.685c1.2909-0.41308 3.6144-1.7556 4.8536-1.8588s4.234-0.15491 5.0085 0c0.77451 0.1549 2.5817 0.0516 3.7177 0.92941 1.1359 0.87779 2.1686 2.7366 2.1686 2.7366z" fill="#525252"/>
<path d="m81.979 101.3s0.43813 3.0669 1.1683 4.2353c0.73022 1.1684 2.7748 5.1115 3.9432 6.3529s2.6288 3.0669 2.3367 3.8702c-0.29209 0.80325-2.7018 1.0953-3.432 1.0953-0.73022 0-3.1399-1.5334-3.1399-1.5334l-2.3061-5.0283 0.48057-6.217z" stroke="#000" stroke-width=".26458px"/>
<path d="m73.424 96.969-2.1686-7.4354 1.0327-14.664 4.5438 10.533-1.8072 8.7778z" stroke="#000" stroke-width=".26458px"/>
</g>
</svg>
